<svg xmlns="http://www.w3.org/2000/svg" width="32" height="32" viewBox="0 0 32 32" fill="none">
  <path d="M31.896 17.824C31.896 17.824 31.896 17.792 31.896 17.784C31.96 17.2 31.992 16.6 31.992 16C32 7.184 24.824 0 16 0C7.176 0 0 7.184 0 16C0 16.624 0.032 17.24 0.112 17.848C0.112 17.848 0.112 17.864 0.112 17.88C0.112 17.912 0.128 17.944 0.128 17.976C0.128 18.008 0.128 18.048 0.136 18.08C1.152 25.928 7.88 32.008 16 32.008C24.12 32.008 30.808 25.968 31.856 18.152V18.128C31.888 18.056 31.912 17.968 31.912 17.88C31.912 17.864 31.904 17.848 31.904 17.832L31.896 17.824ZM16 1.288C24.12 1.288 30.72 7.888 30.72 16C30.72 16.416 30.704 16.824 30.664 17.232H27.072C26.784 16.024 25.696 15.128 24.4 15.128C22.888 15.128 21.656 16.36 21.656 17.872V18.696C21.656 19.504 21 20.16 20.192 20.16C19.384 20.16 18.728 19.504 18.728 18.696V17.872C18.728 16.36 17.496 15.128 15.984 15.128C14.472 15.128 13.24 16.36 13.24 17.872V18.696C13.24 19.504 12.584 20.16 11.776 20.16C10.968 20.16 10.312 19.504 10.312 18.696V17.872C10.312 16.36 9.08 15.128 7.568 15.128C6.272 15.128 5.184 16.024 4.896 17.232H1.344C1.304 16.824 1.288 16.416 1.288 16C1.288 7.888 7.888 1.288 16 1.288ZM16 30.72C8.744 30.72 2.704 25.44 1.504 18.52H5.456C5.808 18.52 6.096 18.232 6.096 17.88C6.096 17.072 6.752 16.416 7.56 16.416C8.368 16.416 9.024 17.072 9.024 17.88V18.704C9.024 20.216 10.256 21.448 11.768 21.448C13.28 21.448 14.512 20.216 14.512 18.704V17.88C14.512 17.072 15.168 16.416 15.976 16.416C16.784 16.416 17.44 17.072 17.44 17.88V18.704C17.44 20.216 18.672 21.448 20.184 21.448C21.696 21.448 22.928 20.216 22.928 18.704V17.88C22.928 17.072 23.584 16.416 24.392 16.416C25.2 16.416 25.856 17.072 25.856 17.88C25.856 18.232 26.144 18.52 26.496 18.52H30.496C29.296 25.44 23.256 30.72 15.992 30.72H16ZM5.264 11.952C5.152 11.616 5.328 11.248 5.664 11.136C6 11.032 6.36 11.2 6.48 11.536C6.496 11.584 6.928 12.776 7.984 12.776C8.336 12.776 8.624 13.064 8.624 13.416C8.624 13.768 8.336 14.056 7.984 14.056C6.008 14.056 5.296 12.032 5.264 11.952ZM22.184 11.952C22.072 11.616 22.248 11.248 22.584 11.136C22.92 11.032 23.28 11.2 23.4 11.536C23.416 11.584 23.848 12.776 24.904 12.776C25.256 12.776 25.544 13.064 25.544 13.416C25.544 13.768 25.256 14.056 24.904 14.056C22.928 14.056 22.216 12.032 22.184 11.952ZM13.728 11.952C13.616 11.616 13.792 11.248 14.128 11.136C14.464 11.032 14.824 11.2 14.944 11.536C14.96 11.584 15.392 12.776 16.448 12.776C16.8 12.776 17.088 13.064 17.088 13.416C17.088 13.768 16.8 14.056 16.448 14.056C14.472 14.056 13.76 12.032 13.728 11.952Z" fill="white"/>
</svg>