<svg xmlns="http://www.w3.org/2000/svg" width="32" height="32" viewBox="0 0 32 32" fill="none">
  <path d="M28.856 6.52C28.816 6.44 28.768 6.376 28.704 6.312C25.776 2.488 21.176 0 16 0C13.704 0 11.504 0.488 9.528 1.368C9.52 1.368 9.504 1.376 9.496 1.384C7.6 2.224 5.904 3.44 4.472 4.912C4.456 4.928 4.44 4.936 4.432 4.952C4.416 4.96 4.4 4.976 4.4 4.992C1.672 7.864 0 11.744 0 16C0 24.328 6.392 31.184 14.528 31.928C14.544 31.928 14.56 31.936 14.568 31.936C15.032 31.976 15.504 32 15.984 32C24.808 32 31.984 24.824 31.984 16C31.984 12.448 30.808 9.176 28.84 6.52H28.856ZM27.536 6.888C26.76 8.752 25.16 10.344 23.456 10.896C22.16 11.312 20.928 11.128 19.8 10.36C19.288 10.008 18.88 9.584 18.456 9.136C17.68 8.328 16.872 7.488 15.472 7.144C15.08 7.048 14.68 6.992 14.28 6.936C13.568 6.84 12.896 6.752 12.344 6.408C11.808 6.072 11.376 5.536 11.04 4.816C10.712 4.096 10.512 3.264 10.456 2.392C12.176 1.68 14.048 1.304 16.016 1.304C20.688 1.304 24.856 3.496 27.552 6.896L27.536 6.888ZM1.28 16C1.28 12.272 2.672 8.864 4.96 6.272C5.504 6.688 5.992 7.272 6.328 7.952C6.992 9.272 6.864 10.696 6.728 12.2C6.648 13.144 6.56 14.12 6.664 15.12C6.96 17.848 8.792 19.832 11.336 20.176C11.768 20.232 12.192 20.264 12.624 20.288C13.056 20.312 13.488 20.344 13.912 20.408C16.416 20.776 18.04 22.848 18.048 25.68C18.048 26.88 17.464 28.736 16.376 29.832C15.84 30.368 15.248 30.648 14.616 30.664C7.152 29.968 1.28 23.656 1.28 16ZM17.36 30.656C18.664 29.304 19.352 27.136 19.344 25.664C19.344 22.216 17.232 19.584 14.112 19.128C13.648 19.064 13.184 19.032 12.72 19C12.32 18.976 11.92 18.952 11.52 18.896C9.552 18.632 8.184 17.128 7.952 14.976C7.856 14.104 7.936 13.232 8.016 12.312C8.16 10.696 8.304 9.032 7.48 7.384C7.072 6.568 6.512 5.864 5.864 5.336C6.856 4.392 7.984 3.584 9.208 2.952C9.312 3.8 9.536 4.616 9.864 5.336C10.304 6.288 10.904 7.008 11.648 7.48C12.432 7.976 13.28 8.088 14.096 8.2C14.456 8.248 14.808 8.296 15.152 8.376C16.192 8.632 16.808 9.272 17.52 10.008C17.976 10.488 18.448 10.976 19.072 11.4C20.024 12.056 21.056 12.384 22.128 12.384C22.696 12.384 23.272 12.288 23.848 12.104C25.704 11.504 27.392 9.976 28.392 8.072C29.864 10.36 30.712 13.08 30.712 15.992C30.712 23.656 24.832 29.96 17.352 30.648L17.36 30.656ZM25.984 17.064L25.872 16.776C25.608 16.128 25.056 14.784 23.664 14.608C23.504 14.584 23.344 14.576 23.176 14.576C22.296 14.576 21.368 14.856 20.696 15.344C19.584 16.144 19.328 17.36 20.024 18.528C20.472 19.28 20.768 19.92 20.944 20.536C20.992 20.704 21.024 20.88 21.056 21.048C21.168 21.616 21.296 22.256 21.856 22.784C22.376 23.288 23.08 23.488 23.816 23.488C25.008 23.488 26.296 22.944 27.072 22.264C27.56 21.824 27.824 21.296 27.848 20.728C27.864 20.152 27.616 19.568 27.144 19.088C26.56 18.496 26.312 17.864 25.984 17.064ZM26.216 21.304C25.392 22.04 23.528 22.6 22.736 21.856C22.488 21.616 22.416 21.304 22.32 20.8C22.28 20.592 22.232 20.384 22.176 20.184C21.968 19.456 21.632 18.72 21.12 17.864C20.896 17.488 20.688 16.928 21.44 16.392C21.976 16.008 22.832 15.8 23.504 15.88C24.048 15.952 24.352 16.456 24.68 17.256L24.792 17.544C25.144 18.4 25.472 19.216 26.232 19.992C26.392 20.152 26.576 20.4 26.568 20.688C26.56 20.896 26.44 21.104 26.216 21.304Z" fill="white"/>
</svg>
