<svg xmlns="http://www.w3.org/2000/svg" width="32" height="32" viewBox="0 0 32 32" fill="none">
  <path d="M16 0C7.176 0 0 7.184 0 16C0 24.816 7.176 32 16 32C24.824 32 32 24.824 32 16C32 7.176 24.824 0 16 0ZM16 30.72C7.88 30.72 1.28 24.12 1.28 16C1.28 7.88 7.88 1.288 16 1.288C24.12 1.288 30.712 7.888 30.712 16C30.712 24.112 24.112 30.72 16 30.72ZM7.496 8.704C6.592 8.704 5.856 9.432 5.856 10.336C5.856 11.24 6.592 11.976 7.496 11.976C8.4 11.976 9.136 11.24 9.136 10.336C9.136 9.432 8.4 8.704 7.496 8.704ZM7.496 10.696C7.296 10.696 7.144 10.536 7.144 10.336C7.144 10.136 7.296 9.984 7.496 9.984C7.696 9.984 7.848 10.144 7.848 10.336C7.848 10.528 7.696 10.696 7.496 10.696ZM22.216 22.488C21.168 22.488 20.32 23.336 20.32 24.376C20.32 25.416 21.168 26.272 22.216 26.272C23.264 26.272 24.112 25.424 24.112 24.376C24.112 23.328 23.256 22.488 22.216 22.488ZM22.216 24.992C21.88 24.992 21.6 24.712 21.6 24.376C21.6 24.04 21.88 23.768 22.216 23.768C22.552 23.768 22.824 24.04 22.824 24.376C22.824 24.712 22.552 24.992 22.216 24.992ZM19.968 6.944C19.736 6.944 19.512 6.96 19.296 6.984C18.944 7.032 18.688 7.352 18.736 7.704C18.776 8.024 19.048 8.264 19.368 8.264C19.392 8.264 19.424 8.264 19.448 8.256C19.616 8.24 19.792 8.232 20.008 8.232C20.368 8.232 20.624 7.944 20.624 7.584C20.624 7.224 20.32 6.944 19.968 6.944ZM24.384 9.152C24.24 8.96 24.08 8.784 23.92 8.608C23.672 8.36 23.264 8.352 23.008 8.608C22.752 8.864 22.752 9.256 23 9.512C23.128 9.648 23.248 9.792 23.36 9.936C23.488 10.104 23.68 10.192 23.872 10.192C24.008 10.192 24.144 10.152 24.264 10.064C24.544 9.848 24.6 9.448 24.384 9.16V9.152ZM16.504 8.968C16.224 8.744 15.816 8.8 15.6 9.08C15.456 9.264 15.32 9.464 15.2 9.672C15.016 9.976 15.12 10.368 15.424 10.552C15.528 10.608 15.64 10.64 15.752 10.64C15.968 10.64 16.184 10.528 16.304 10.328C16.4 10.168 16.504 10.008 16.616 9.864C16.832 9.584 16.784 9.184 16.504 8.968ZM24.848 11.832C24.496 11.832 24.208 12.12 24.208 12.472C24.208 12.664 24.2 12.848 24.176 13.032C24.128 13.376 24.376 13.704 24.728 13.752H24.808C25.128 13.752 25.4 13.52 25.448 13.2C25.48 12.96 25.488 12.72 25.488 12.472C25.488 12.12 25.208 11.832 24.848 11.832ZM16.032 14.08C15.96 13.904 15.904 13.728 15.856 13.552C15.768 13.208 15.424 13 15.072 13.088C14.728 13.176 14.528 13.528 14.616 13.872C14.672 14.112 14.752 14.336 14.84 14.56C14.944 14.808 15.184 14.96 15.44 14.96C15.52 14.96 15.6 14.944 15.68 14.912C16.008 14.776 16.168 14.408 16.032 14.08ZM23.44 15.968C23.224 15.688 22.824 15.632 22.544 15.848C22.4 15.96 22.24 16.064 22.08 16.152C21.776 16.328 21.664 16.72 21.84 17.032C21.96 17.24 22.176 17.352 22.4 17.352C22.512 17.352 22.616 17.328 22.72 17.264C22.928 17.144 23.128 17.016 23.32 16.864C23.6 16.648 23.656 16.248 23.44 15.968ZM18.848 16.568C18.672 16.52 18.496 16.464 18.32 16.392C18 16.256 17.616 16.408 17.48 16.736C17.344 17.064 17.504 17.44 17.832 17.576C18.048 17.664 18.28 17.744 18.512 17.808C18.568 17.824 18.624 17.832 18.68 17.832C18.968 17.832 19.224 17.64 19.304 17.36C19.392 17.016 19.192 16.664 18.848 16.568ZM20.064 9.944C18.672 9.944 17.536 11.08 17.536 12.472C17.536 13.864 18.672 15.008 20.064 15.008C21.456 15.008 22.6 13.872 22.6 12.472C22.6 11.072 21.464 9.944 20.064 9.944ZM20.064 13.728C19.376 13.728 18.816 13.168 18.816 12.472C18.816 11.776 19.376 11.224 20.064 11.224C20.752 11.224 21.32 11.784 21.32 12.472C21.32 13.16 20.76 13.728 20.064 13.728ZM12.192 17.112C11.976 16.984 11.744 16.88 11.504 16.792C11.176 16.68 10.808 16.848 10.688 17.184C10.568 17.52 10.736 17.888 11.072 18C11.24 18.064 11.4 18.136 11.552 18.224C11.648 18.28 11.76 18.312 11.872 18.312C12.088 18.312 12.304 18.192 12.424 17.992C12.6 17.68 12.496 17.288 12.192 17.112ZM8.176 17.688C7.936 17.424 7.528 17.408 7.264 17.648C7.08 17.816 6.912 18 6.76 18.2C6.544 18.488 6.6 18.888 6.88 19.104C7 19.192 7.136 19.232 7.272 19.232C7.464 19.232 7.656 19.144 7.776 18.984C7.888 18.84 8.008 18.712 8.136 18.592C8.4 18.352 8.416 17.944 8.176 17.688ZM13.64 20.104C13.288 20.104 13 20.384 13 20.744C13 20.92 12.984 21.096 12.952 21.264C12.888 21.616 13.12 21.944 13.472 22.008C13.504 22.016 13.544 22.024 13.584 22.024C13.888 22.024 14.16 21.808 14.216 21.496C14.256 21.248 14.28 21 14.28 20.744C14.28 20.384 13.992 20.104 13.64 20.104ZM7.712 22.416C7.616 22.272 7.528 22.12 7.448 21.96C7.304 21.64 6.92 21.496 6.6 21.648C6.28 21.8 6.136 22.176 6.288 22.496C6.392 22.728 6.52 22.952 6.664 23.152C6.792 23.328 6.992 23.424 7.192 23.424C7.32 23.424 7.448 23.392 7.56 23.312C7.848 23.104 7.92 22.704 7.712 22.416ZM11.776 23.928C11.672 23.592 11.312 23.408 10.968 23.512C10.808 23.568 10.632 23.608 10.456 23.624C10.104 23.672 9.856 23.992 9.904 24.344C9.944 24.672 10.216 24.904 10.536 24.904C10.56 24.904 10.592 24.904 10.616 24.896C10.872 24.864 11.12 24.816 11.36 24.736C11.696 24.632 11.88 24.272 11.776 23.928ZM10.088 18.792C9.016 18.792 8.136 19.664 8.136 20.744C8.136 21.824 9.016 22.696 10.088 22.696C11.16 22.696 12.048 21.816 12.048 20.744C12.048 19.672 11.168 18.792 10.088 18.792ZM10.088 21.416C9.72 21.416 9.424 21.112 9.424 20.744C9.424 20.376 9.72 20.072 10.088 20.072C10.456 20.072 10.768 20.368 10.768 20.744C10.768 21.12 10.464 21.416 10.088 21.416Z" fill="white"/>
</svg>