<svg xmlns="http://www.w3.org/2000/svg" width="32" height="32" viewBox="0 0 32 32" fill="none">
  <path d="M16 0C7.176 0 0 7.184 0 16C0 24.816 7.176 32 16 32C24.824 32 32 24.824 32 16C32 7.176 24.824 0 16 0ZM16 30.72C7.88 30.72 1.28 24.12 1.28 16C1.28 7.88 7.88 1.288 16 1.288C24.12 1.288 30.712 7.888 30.712 16C30.712 24.112 24.112 30.72 16 30.72ZM14.624 9.792C13.528 9.792 12.64 10.68 12.64 11.776C12.64 12.872 13.528 13.768 14.624 13.768C15.72 13.768 16.616 12.872 16.616 11.776C16.616 10.68 15.72 9.792 14.624 9.792ZM14.624 12.488C14.24 12.488 13.92 12.168 13.92 11.776C13.92 11.384 14.24 11.072 14.624 11.072C15.008 11.072 15.336 11.392 15.336 11.776C15.336 12.16 15.016 12.488 14.624 12.488ZM20.896 14.424C19.8 14.424 18.904 15.32 18.904 16.416C18.904 17.512 19.8 18.4 20.896 18.4C21.992 18.4 22.888 17.512 22.888 16.416C22.888 15.32 21.992 14.424 20.896 14.424ZM20.896 17.12C20.504 17.12 20.192 16.808 20.192 16.416C20.192 16.024 20.504 15.704 20.896 15.704C21.288 15.704 21.608 16.024 21.608 16.416C21.608 16.808 21.288 17.12 20.896 17.12ZM18.2 23.568C17.104 23.568 16.208 24.464 16.208 25.56C16.208 26.656 17.104 27.544 18.2 27.544C19.296 27.544 20.192 26.656 20.192 25.56C20.192 24.464 19.296 23.568 18.2 23.568ZM18.2 26.264C17.808 26.264 17.496 25.952 17.496 25.56C17.496 25.168 17.808 24.848 18.2 24.848C18.592 24.848 18.904 25.168 18.904 25.56C18.904 25.952 18.592 26.264 18.2 26.264ZM16.856 3.624C15.984 3.624 15.272 4.328 15.272 5.2C15.272 6.072 15.984 6.776 16.856 6.776C17.728 6.776 18.432 6.072 18.432 5.2C18.432 4.328 17.72 3.624 16.856 3.624ZM16.56 5.2C16.56 5.04 16.688 4.904 16.856 4.904C17.024 4.904 17.152 5.04 17.152 5.2C17.152 5.528 16.56 5.528 16.56 5.2ZM7.568 7.544C6.704 7.544 5.992 8.256 5.992 9.12C5.992 9.984 6.704 10.696 7.568 10.696C8.432 10.696 9.152 9.992 9.152 9.12C9.152 8.248 8.44 7.544 7.568 7.544ZM7.28 9.12C7.28 8.96 7.408 8.824 7.568 8.824C7.736 8.824 7.864 8.96 7.864 9.12C7.864 9.448 7.28 9.448 7.28 9.12ZM5.912 14.424C4.888 14.424 4.056 15.256 4.056 16.28C4.056 17.304 4.888 18.136 5.912 18.136C6.936 18.136 7.76 17.304 7.76 16.28C7.76 15.256 6.928 14.424 5.912 14.424ZM5.912 16.848C5.592 16.848 5.336 16.592 5.336 16.28C5.336 15.968 5.592 15.704 5.912 15.704C6.232 15.704 6.48 15.968 6.48 16.28C6.48 16.592 6.224 16.848 5.912 16.848ZM9.448 22.632C8.576 22.632 7.864 23.336 7.864 24.208C7.864 25.08 8.576 25.784 9.448 25.784C10.32 25.784 11.024 25.08 11.024 24.208C11.024 23.336 10.312 22.632 9.448 22.632ZM9.152 24.208C9.152 24.048 9.28 23.912 9.448 23.912C9.616 23.912 9.736 24.048 9.736 24.208C9.736 24.536 9.152 24.536 9.152 24.208ZM25.208 19.528C24.336 19.528 23.632 20.24 23.632 21.104C23.632 21.968 24.336 22.68 25.208 22.68C26.08 22.68 26.784 21.976 26.784 21.104C26.784 20.232 26.072 19.528 25.208 19.528ZM24.912 21.104C24.912 20.944 25.04 20.808 25.208 20.808C25.376 20.808 25.504 20.944 25.504 21.104C25.504 21.432 24.912 21.432 24.912 21.104ZM14.112 16.656C12.728 16.656 11.6 17.784 11.6 19.16C11.6 20.536 12.728 21.672 14.112 21.672C15.496 21.672 16.616 20.544 16.616 19.16C16.616 17.776 15.488 16.656 14.112 16.656ZM14.112 20.384C13.432 20.384 12.88 19.84 12.88 19.16C12.88 18.48 13.432 17.936 14.112 17.936C14.792 17.936 15.336 18.488 15.336 19.16C15.336 19.832 14.784 20.384 14.112 20.384ZM24.136 7.92C22.752 7.92 21.632 9.048 21.632 10.432C21.632 11.816 22.752 12.936 24.136 12.936C25.52 12.936 26.648 11.816 26.648 10.432C26.648 9.048 25.52 7.92 24.136 7.92ZM24.136 11.656C23.464 11.656 22.912 11.104 22.912 10.432C22.912 9.76 23.464 9.208 24.136 9.208C24.808 9.208 25.36 9.752 25.36 10.432C25.36 11.112 24.816 11.656 24.136 11.656Z" fill="white"/>
</svg>